<svg xmlns="http://www.w3.org/2000/svg" width="160" height="160" viewBox="0 0 160 160">
  <defs>
    <linearGradient id="web-icon-a" x1="0%" x2="94.064%" y1="12.405%" y2="92.515%">
      <stop offset="0%" stop-color="#FE315D"/>
      <stop offset="18.964%" stop-color="#F63462"/>
      <stop offset="27.033%" stop-color="#DF3A71"/>
      <stop offset="37.648%" stop-color="#C24383"/>
      <stop offset="45.137%" stop-color="#AD4A91"/>
      <stop offset="54.98%" stop-color="#755BB4"/>
      <stop offset="91.75%" stop-color="#1D76ED"/>
      <stop offset="100%" stop-color="#087CFA"/>
    </linearGradient>
    <linearGradient id="web-icon-b" x1="80.384%" x2="-14.094%" y1="70.341%" y2="-7.262%">
      <stop offset="0%" stop-color="#F97A12"/>
      <stop offset="45.91%" stop-color="#B07B58"/>
      <stop offset="72.41%" stop-color="#577BAE"/>
      <stop offset="91.05%" stop-color="#1E7CE5"/>
      <stop offset="100%" stop-color="#087CFA"/>
    </linearGradient>
    <linearGradient id="web-icon-c" x1="115.931%" x2="7.429%" y1="46.478%" y2="68.495%">
      <stop offset="0%" stop-color="#FE315D"/>
      <stop offset="4.023%" stop-color="#F63462"/>
      <stop offset="10.37%" stop-color="#DF3A71"/>
      <stop offset="16.67%" stop-color="#C24383"/>
      <stop offset="29.12%" stop-color="#AD4A91"/>
      <stop offset="54.98%" stop-color="#755BB4"/>
      <stop offset="91.75%" stop-color="#1D76ED"/>
      <stop offset="100%" stop-color="#087CFA"/>
    </linearGradient>
    <linearGradient id="web-icon-d" x1="69.111%" x2="54.972%" y1=".231%" y2="121.59%">
      <stop offset=".063%" stop-color="#F3DC5A"/>
      <stop offset="20.475%" stop-color="#F97A12"/>
      <stop offset="31.867%" stop-color="#B07B58"/>
      <stop offset="43.008%" stop-color="#577BAE"/>
      <stop offset="82.308%" stop-color="#1E7CE5"/>
      <stop offset="100%" stop-color="#087CFA"/>
    </linearGradient>
  </defs>
  <g fill="none">
    <path fill="url(#web-icon-a)"
          d="M122.279057,133.806364 L25.0354375,78.7862238 C6.97296832,70.5567512 -4.03066485,49.480413 5.89712175,26.7446829 C8.36405326,20.6629404 13.0160183,15.4890573 18.856033,12.0244212 C37.1001668,1.25342056 56.3360412,4.85078199 68.3801943,16.0733925 L144.763736,100.157494 C151.557199,104.94381 155.396122,113.949477 151.850378,123.767538 C150.249425,128.128498 147.116584,131.876351 142.795694,133.914957 C135.554796,137.685881 128.08642,137.130982 122.279057,133.806364 Z"/>
    <path fill="url(#web-icon-b)"
          d="M84.9935996,103.591405 L81.7803668,108.486813 L5.44294826,86.746988 L66.4282548,152.703407 L66.9439588,153.269274 L67.2084224,153.558787 L67.2084224,153.558787 C68.6119648,154.927799 70.2227636,156.069039 71.9819904,156.94083 C75.4649548,158.717799 79.4945353,159.117412 83.261363,158.059405 C86.2469982,157.25375 88.9773838,155.704902 91.1952711,153.558787 L91.1952711,153.558787 L91.3936188,153.361392 L91.7109751,153.032399 L118.157335,125.897097 L84.9935996,103.591405 Z"
          transform="matrix(-1 0 0 1 123.6 0)"/>
    <path fill="url(#web-icon-c)"
          d="M144.089828,93.1798939 C136.21958,91.0467671 132.026213,91.5831674 122.053133,91.5831674 L95.3311821,91.5831674 C94.8023999,91.5831674 36.5748622,78.8093551 36.5748622,78.8093551 L12.9395237,101.151052 L11.8942564,102.211378 C-3.85853678,117.654718 -1.22692262,144.799069 21.855039,156.500081 C27.5755467,159.227589 33.9706761,160.1531 40.2148518,159.157134 C40.2148518,159.157134 129.636,139.522613 133.606604,138.646024 C137.577209,137.769435 140.084357,137.160717 141.470511,136.802962 C155.636957,132.549183 161.404373,119.23897 158.256274,107.525484 C156.165739,101.687453 151.443591,95.3005464 144.089828,93.1798939 Z"
          transform="matrix(-1 0 0 1 161.02 0)"/>
    <path fill="url(#web-icon-d)"
          d="M84.1959147,131.537028 C55.9441633,142.518442 29.4497997,114.785864 44.2335022,87.7615017 C45.219516,86.0310961 46.1652589,84.5063255 47.5267191,83.0617612 L96.3144045,14.5819001 C99.1516332,10.0075883 103.32306,6.33090359 108.084295,4.04844155 C139.508451,-11.0158079 170.37435,18.6272145 156.649453,49.0569274 C155.542627,51.4042381 154.060354,53.4657074 152.618352,55.3215417 L96.6764275,121.780887 C93.671611,126.109461 89.3325968,129.540408 84.1959147,131.537028 Z"/>
    <rect width="108.859" height="108.859" x="26.194" y="24.947" fill="#000"/>
    <path fill="#FFF"
          d="M85.1079183,84.7058824 C81.644224,84.7058824 78.6753431,83.9638321 76.4486824,82.7270816 C74.2220218,81.4903311 72.2427679,79.7588804 70.7583274,78.0274297 L76.9434959,71.1016269 C78.1805296,72.5857275 79.4175633,73.5751279 80.654597,74.3171782 C81.8916307,75.0592285 83.3760711,75.5539287 84.8605116,75.5539287 C86.5923587,75.5539287 88.0767992,75.0592285 89.3138329,73.822478 C90.3034598,72.5857275 90.7982733,70.8542768 90.7982733,68.1334258 L90.7982733,39.6881644 L100.694543,39.6881644 L100.694543,68.6281259 C100.694543,71.348977 100.447136,73.5751279 99.7049159,75.5539287 C98.9626957,77.5327295 97.9730687,79.0168301 96.4886283,80.5009307 C95.2515946,81.7376812 93.5197474,82.9744317 91.5404935,83.4691319 C89.5612396,84.2111822 87.5819857,84.7058824 85.1079183,84.7058824"/>
    <rect width="39.575" height="7.371" x="36.173" y="111.694" fill="#FFF"/>
    <path fill="#FFF"
          d="M36.172927,39.6881644 L54.244218,39.6881644 C64.888951,39.6881644 71.3253012,45.8776282 71.3253012,55.0380345 L71.3253012,55.285613 C71.3253012,65.6839121 63.4036394,70.8830617 53.2540102,70.8830617 L45.8274523,70.8830617 L45.8274523,84.2523033 L36.172927,84.2523033 L36.172927,39.6881644 Z M53.7491141,61.9702339 C58.7001527,61.9702339 61.423224,58.9992913 61.423224,55.285613 L61.423224,55.0380345 C61.423224,50.5816206 58.4526008,48.3534137 53.5015622,48.3534137 L46.0750042,48.3534137 L46.0750042,61.9702339 L53.7491141,61.9702339 Z"/>
  </g>
</svg>
